<svg width="368" height="192" viewBox="0 0 368 192" fill="none" xmlns="http://www.w3.org/2000/svg">
<path d="M86.622 191.66C69.066 191.66 53.9927 189 41.402 183.68C28.8113 178.183 18.9693 170.025 11.876 159.208C4.78267 148.391 0.970001 135.002 0.438 119.042C0.260667 111.594 0.172001 103.614 0.172001 95.102C0.172001 86.4127 0.260667 78.2553 0.438 70.63C0.970001 55.202 4.78267 42.2567 11.876 31.794C19.1467 21.3313 29.166 13.44 41.934 8.12C54.702 2.79999 69.598 0.13999 86.622 0.13999C100.277 0.13999 112.424 1.73599 123.064 4.92799C133.704 8.11999 142.748 12.4647 150.196 17.962C157.821 23.4593 163.585 29.666 167.486 36.582C171.565 43.3207 173.693 50.3253 173.87 57.596C173.87 59.192 173.249 60.6107 172.008 61.852C170.944 62.916 169.614 63.448 168.018 63.448H119.074C117.301 63.448 115.882 63.182 114.818 62.65C113.754 61.9407 112.779 61.054 111.892 59.99C111.005 58.2167 109.587 56.1773 107.636 53.872C105.863 51.5667 103.291 49.616 99.922 48.02C96.5527 46.2467 92.1193 45.36 86.622 45.36C78.2873 45.36 71.8147 47.488 67.204 51.744C62.5933 56 60.1107 62.7387 59.756 71.96C59.224 86.856 59.224 102.107 59.756 117.712C60.1107 127.82 62.682 135.179 67.47 139.79C72.4353 144.223 79.0853 146.44 87.42 146.44C92.9173 146.44 97.794 145.553 102.05 143.78C106.483 142.007 109.941 139.258 112.424 135.534C114.907 131.633 116.148 126.667 116.148 120.638V117.978H97.262C95.3113 117.978 93.6267 117.269 92.208 115.85C90.9667 114.431 90.346 112.835 90.346 111.062V86.324C90.346 84.3733 90.9667 82.7773 92.208 81.536C93.6267 80.1173 95.3113 79.408 97.262 79.408H167.22C169.171 79.408 170.855 80.1173 172.274 81.536C173.693 82.7773 174.402 84.3733 174.402 86.324V118.776C174.402 134.381 170.678 147.593 163.23 158.41C155.782 169.227 145.497 177.473 132.374 183.148C119.251 188.823 104.001 191.66 86.622 191.66Z" fill="black"/>
<path d="M208.271 189C206.498 189 204.902 188.379 203.483 187.138C202.065 185.719 201.355 184.035 201.355 182.084V9.71599C201.355 7.76532 202.065 6.16932 203.483 4.92799C204.902 3.50932 206.498 2.79999 208.271 2.79999H293.125C309.263 2.79999 322.474 4.92799 332.759 9.18398C343.045 13.44 350.67 19.558 355.635 27.538C360.601 35.518 363.083 45.36 363.083 57.064C363.083 63.0933 361.842 68.502 359.359 73.29C357.054 77.9007 354.217 81.802 350.847 84.994C347.478 88.0087 344.286 90.2253 341.271 91.644C348.187 94.6587 354.217 99.8013 359.359 107.072C364.502 114.165 367.073 122.323 367.073 131.544C367.073 143.957 364.236 154.42 358.561 162.932C353.064 171.444 344.995 177.917 334.355 182.35C323.893 186.783 311.036 189 295.785 189H208.271ZM258.545 148.834H289.667C295.697 148.834 300.13 147.061 302.967 143.514C305.805 139.79 307.223 135.711 307.223 131.278C307.223 126.667 305.716 122.677 302.701 119.308C299.687 115.761 295.342 113.988 289.667 113.988H258.545V148.834ZM258.545 74.886H287.007C292.682 74.886 296.849 73.29 299.509 70.098C302.169 66.906 303.499 63.182 303.499 58.926C303.499 54.67 302.169 50.946 299.509 47.754C296.849 44.562 292.682 42.966 287.007 42.966H258.545V74.886Z" fill="#3E68FF"/>
</svg>
