<svg width="509" height="343" viewBox="0 0 509 343" fill="none" xmlns="http://www.w3.org/2000/svg">
<g filter="url(#filter0_d_104_8)">
<path d="M112.638 34.3263C113.899 30.0845 117.798 27.176 122.223 27.176L202.78 27.176C209.468 27.176 214.271 33.6148 212.365 40.0257L144.548 268.139C143.287 272.38 139.388 275.289 134.963 275.289L54.4056 275.289C47.7173 275.289 42.9142 268.85 44.8202 262.439L112.638 34.3263Z" fill="#0C8CE9"/>
<path d="M238.56 34.888C239.821 30.6462 243.72 27.7377 248.145 27.7377L328.702 27.7377C335.39 27.7377 340.194 34.1765 338.288 40.5874L270.47 268.7C269.209 272.942 265.31 275.851 260.885 275.851L180.328 275.851C173.639 275.851 168.836 269.412 170.742 263.001L238.56 34.888Z" fill="#0C8CE9"/>
<path d="M364.482 35.4497C365.743 31.2079 369.642 28.2994 374.068 28.2994L454.625 28.2994C461.313 28.2994 466.116 34.7382 464.21 41.1491L396.392 269.262C395.131 273.504 391.232 276.412 386.807 276.412L306.25 276.412C299.562 276.412 294.759 269.974 296.665 263.563L364.482 35.4497Z" fill="#0C8CE9"/>
</g>
<defs>
<filter id="filter0_d_104_8" x="0.399048" y="5.17603" width="508.232" height="337.236" filterUnits="userSpaceOnUse" color-interpolation-filters="sRGB">
<feFlood flood-opacity="0" result="BackgroundImageFix"/>
<feColorMatrix in="SourceAlpha" type="matrix" values="0 0 0 0 0 0 0 0 0 0 0 0 0 0 0 0 0 0 127 0" result="hardAlpha"/>
<feOffset dy="22"/>
<feGaussianBlur stdDeviation="22"/>
<feComposite in2="hardAlpha" operator="out"/>
<feColorMatrix type="matrix" values="0 0 0 0 0 0 0 0 0 0 0 0 0 0 0 0 0 0 0.25 0"/>
<feBlend mode="normal" in2="BackgroundImageFix" result="effect1_dropShadow_104_8"/>
<feBlend mode="normal" in="SourceGraphic" in2="effect1_dropShadow_104_8" result="shape"/>
</filter>
</defs>
</svg>
