<svg width="512" height="512" viewBox="0 0 512 512" fill="none" xmlns="http://www.w3.org/2000/svg">
<rect width="512" height="512" fill="#3E68FF"/>
<path d="M159.622 350.66C142.066 350.66 126.993 348 114.402 342.68C101.811 337.183 91.9693 329.025 84.876 318.208C77.7827 307.391 73.97 294.002 73.438 278.042C73.2607 270.594 73.172 262.614 73.172 254.102C73.172 245.413 73.2607 237.255 73.438 229.63C73.97 214.202 77.7827 201.257 84.876 190.794C92.1467 180.331 102.166 172.44 114.934 167.12C127.702 161.8 142.598 159.14 159.622 159.14C173.277 159.14 185.424 160.736 196.064 163.928C206.704 167.12 215.748 171.465 223.196 176.962C230.821 182.459 236.585 188.666 240.486 195.582C244.565 202.321 246.693 209.325 246.87 216.596C246.87 218.192 246.249 219.611 245.008 220.852C243.944 221.916 242.614 222.448 241.018 222.448H192.074C190.301 222.448 188.882 222.182 187.818 221.65C186.754 220.941 185.779 220.054 184.892 218.99C184.005 217.217 182.587 215.177 180.636 212.872C178.863 210.567 176.291 208.616 172.922 207.02C169.553 205.247 165.119 204.36 159.622 204.36C151.287 204.36 144.815 206.488 140.204 210.744C135.593 215 133.111 221.739 132.756 230.96C132.224 245.856 132.224 261.107 132.756 276.712C133.111 286.82 135.682 294.179 140.47 298.79C145.435 303.223 152.085 305.44 160.42 305.44C165.917 305.44 170.794 304.553 175.05 302.78C179.483 301.007 182.941 298.258 185.424 294.534C187.907 290.633 189.148 285.667 189.148 279.638V276.978H170.262C168.311 276.978 166.627 276.269 165.208 274.85C163.967 273.431 163.346 271.835 163.346 270.062V245.324C163.346 243.373 163.967 241.777 165.208 240.536C166.627 239.117 168.311 238.408 170.262 238.408H240.22C242.171 238.408 243.855 239.117 245.274 240.536C246.693 241.777 247.402 243.373 247.402 245.324V277.776C247.402 293.381 243.678 306.593 236.23 317.41C228.782 328.227 218.497 336.473 205.374 342.148C192.251 347.823 177.001 350.66 159.622 350.66ZM281.271 348C279.498 348 277.902 347.379 276.483 346.138C275.065 344.719 274.355 343.035 274.355 341.084V168.716C274.355 166.765 275.065 165.169 276.483 163.928C277.902 162.509 279.498 161.8 281.271 161.8H366.125C382.263 161.8 395.474 163.928 405.759 168.184C416.045 172.44 423.67 178.558 428.635 186.538C433.601 194.518 436.083 204.36 436.083 216.064C436.083 222.093 434.842 227.502 432.359 232.29C430.054 236.901 427.217 240.802 423.847 243.994C420.478 247.009 417.286 249.225 414.271 250.644C421.187 253.659 427.217 258.801 432.359 266.072C437.502 273.165 440.073 281.323 440.073 290.544C440.073 302.957 437.236 313.42 431.561 321.932C426.064 330.444 417.995 336.917 407.355 341.35C396.893 345.783 384.036 348 368.785 348H281.271ZM331.545 307.834H362.667C368.697 307.834 373.13 306.061 375.967 302.514C378.805 298.79 380.223 294.711 380.223 290.278C380.223 285.667 378.716 281.677 375.701 278.308C372.687 274.761 368.342 272.988 362.667 272.988H331.545V307.834ZM331.545 233.886H360.007C365.682 233.886 369.849 232.29 372.509 229.098C375.169 225.906 376.499 222.182 376.499 217.926C376.499 213.67 375.169 209.946 372.509 206.754C369.849 203.562 365.682 201.966 360.007 201.966H331.545V233.886Z" fill="white"/>
</svg>
