<svg width="441" height="138" viewBox="0 0 441 138" fill="none" xmlns="http://www.w3.org/2000/svg">
<g filter="url(#filter0_d_111_2)">
<path d="M56.6994 24.9236C57.0777 23.651 58.2474 22.7785 59.575 22.7785L73.0284 22.7785C75.0349 22.7785 76.4758 24.7101 75.904 26.6334L63.3507 68.858C62.9724 70.1306 61.8027 71.0031 60.4751 71.0031L47.0217 71.0031C45.0152 71.0031 43.5743 69.0715 44.1461 67.1482L56.6994 24.9236Z" fill="#0C8CE9"/>
<path d="M81.1743 25.0328C81.5526 23.7602 82.7223 22.8877 84.0499 22.8877L97.5033 22.8877C99.5098 22.8877 100.951 24.8193 100.379 26.7426L87.8257 68.9672C87.4473 70.2397 86.2776 71.1123 84.9501 71.1123L71.4966 71.1123C69.4901 71.1123 68.0492 69.1807 68.621 67.2574L81.1743 25.0328Z" fill="#0C8CE9"/>
<path d="M105.649 25.142C106.028 23.8694 107.197 22.9969 108.525 22.9969L121.978 22.9969C123.985 22.9969 125.426 24.9285 124.854 26.8518L112.301 69.0764C111.922 70.3489 110.753 71.2215 109.425 71.2215L95.9716 71.2215C93.9651 71.2215 92.5242 69.2899 93.096 67.3666L105.649 25.142Z" fill="#0C8CE9"/>
</g>
<path d="M165.887 28.1177H176.469C179.156 28.1177 181.627 28.5586 183.883 29.4404C186.159 30.3223 188.138 31.5835 189.82 33.2241C191.501 34.8647 192.804 36.8335 193.727 39.1304C194.649 41.4272 195.111 44.001 195.111 46.8516C195.111 49.6201 194.649 52.1323 193.727 54.3882C192.804 56.6235 191.501 58.5513 189.82 60.1714C188.138 61.771 186.159 63.0015 183.883 63.8628C181.627 64.7036 179.156 65.124 176.469 65.124H165.887C163.18 65.124 160.688 64.7036 158.412 63.8628C156.136 63.0015 154.146 61.771 152.444 60.1714C150.763 58.5718 149.46 56.6543 148.538 54.4189C147.615 52.1836 147.153 49.6816 147.153 46.9131C147.153 44.0625 147.615 41.4888 148.538 39.1919C149.46 36.895 150.763 34.916 152.444 33.2549C154.146 31.5938 156.136 30.3223 158.412 29.4404C160.688 28.5586 163.18 28.1177 165.887 28.1177ZM165.887 36.1465C164.083 36.1465 162.473 36.5464 161.058 37.3462C159.663 38.146 158.566 39.3457 157.766 40.9453C156.987 42.5244 156.597 44.5137 156.597 46.9131C156.597 48.5947 156.823 50.0815 157.274 51.3735C157.746 52.645 158.402 53.7012 159.243 54.542C160.104 55.3828 161.099 56.0186 162.227 56.4492C163.354 56.8799 164.575 57.0952 165.887 57.0952H176.531C178.315 57.0952 179.884 56.7158 181.237 55.957C182.611 55.1777 183.688 54.019 184.467 52.481C185.247 50.9429 185.636 49.0664 185.636 46.8516C185.636 45.0674 185.411 43.5088 184.959 42.1758C184.508 40.8428 183.873 39.7354 183.052 38.8535C182.252 37.9512 181.299 37.2744 180.191 36.8232C179.084 36.3721 177.864 36.1465 176.531 36.1465H165.887ZM175.977 22.3652V70.8457H166.379V22.3652H175.977ZM209.815 55.834L219.997 35.7158H229.595V69H219.997V48.8203L209.815 69H200.187V35.7158H209.815V55.834ZM258.695 48.9434V56.3569H241.93V48.9434H258.695ZM245.283 35.7158V69H235.686V35.7158H245.283ZM265.032 35.7158V69H255.373V35.7158H265.032Z" fill="#1E1E1E"/>
<path d="M301.946 24.2109V31.9937H279.244V24.2109H301.946ZM308.898 24.2109V69H298.87V24.2109H308.898ZM278.291 24.2109H288.257L287.119 46.8516C286.935 50.2354 286.596 53.1782 286.104 55.6802C285.632 58.1616 284.976 60.2637 284.135 61.9863C283.315 63.6885 282.32 65.0625 281.151 66.1084C279.982 67.1338 278.619 67.8721 277.06 68.3232C275.501 68.7744 273.728 69 271.738 69H269.308V61.248L270.477 61.125C271.461 61.043 272.312 60.7866 273.03 60.356C273.769 59.9253 274.404 59.2896 274.938 58.4487C275.471 57.5874 275.912 56.4902 276.26 55.1572C276.629 53.8242 276.917 52.2041 277.122 50.2969C277.347 48.3896 277.501 46.1543 277.583 43.5908L278.291 24.2109ZM325.294 55.834L335.477 35.7158H345.074V69H335.477V48.8203L325.294 69H315.666V35.7158H325.294V55.834ZM365.192 62.1401C366.218 62.1401 367.11 61.9453 367.869 61.5557C368.627 61.166 369.212 60.6226 369.622 59.9253C370.053 59.2075 370.268 58.3462 370.268 57.3413H379.312C379.312 59.7612 378.687 61.894 377.436 63.7397C376.205 65.5854 374.544 67.0312 372.452 68.0771C370.36 69.1025 368.002 69.6152 365.377 69.6152C362.793 69.6152 360.537 69.1948 358.609 68.354C356.682 67.4927 355.072 66.293 353.78 64.7549C352.488 63.2168 351.514 61.4326 350.857 59.4023C350.222 57.3516 349.904 55.1367 349.904 52.7578V51.958C349.904 49.5996 350.222 47.395 350.857 45.3442C351.514 43.2935 352.488 41.499 353.78 39.9609C355.072 38.4229 356.671 37.2334 358.579 36.3926C360.506 35.5312 362.762 35.1006 365.346 35.1006C368.074 35.1006 370.483 35.6235 372.575 36.6694C374.688 37.7153 376.338 39.2227 377.528 41.1914C378.717 43.1396 379.312 45.4878 379.312 48.2358H370.268C370.268 47.1694 370.073 46.2158 369.684 45.375C369.314 44.5137 368.74 43.8369 367.961 43.3447C367.202 42.832 366.259 42.5757 365.131 42.5757C363.962 42.5757 362.998 42.832 362.239 43.3447C361.501 43.8369 360.937 44.5239 360.547 45.4058C360.158 46.2876 359.891 47.2925 359.748 48.4204C359.604 49.5278 359.532 50.707 359.532 51.958V52.7578C359.532 54.0293 359.604 55.2393 359.748 56.3877C359.891 57.5156 360.158 58.5103 360.547 59.3716C360.958 60.2329 361.532 60.9097 362.27 61.4019C363.008 61.894 363.982 62.1401 365.192 62.1401ZM401.86 35.7158V69H392.201V35.7158H401.86ZM412.473 35.7158V43.1294H381.773V35.7158H412.473Z" fill="#0C8CE9"/>
<defs>
<filter id="filter0_d_111_2" x="0.0197144" y="0.778503" width="168.961" height="136.443" filterUnits="userSpaceOnUse" color-interpolation-filters="sRGB">
<feFlood flood-opacity="0" result="BackgroundImageFix"/>
<feColorMatrix in="SourceAlpha" type="matrix" values="0 0 0 0 0 0 0 0 0 0 0 0 0 0 0 0 0 0 127 0" result="hardAlpha"/>
<feOffset dy="22"/>
<feGaussianBlur stdDeviation="22"/>
<feComposite in2="hardAlpha" operator="out"/>
<feColorMatrix type="matrix" values="0 0 0 0 0 0 0 0 0 0 0 0 0 0 0 0 0 0 0.25 0"/>
<feBlend mode="normal" in2="BackgroundImageFix" result="effect1_dropShadow_111_2"/>
<feBlend mode="normal" in="SourceGraphic" in2="effect1_dropShadow_111_2" result="shape"/>
</filter>
</defs>
</svg>
